<svg width="68" height="64" viewBox="0 0 68 64" fill="none" xmlns="http://www.w3.org/2000/svg">
<g clip-path="url(#clip0_511_1717)">
<path d="M47.158 44.6739C48.363 44.5561 49.4755 43.9757 50.2614 43.0546C51.0473 42.1336 51.4455 40.9437 51.3722 39.7351V39.7484C51.3131 38.5111 50.7835 37.3432 49.8917 36.4835C48.9998 35.6239 47.8132 35.1375 46.5746 35.124H46.4014C45.7705 35.1467 45.1501 35.2935 44.5759 35.556C44.0017 35.8185 43.4848 36.1916 43.0549 36.654C42.6249 37.1164 42.2903 37.6589 42.0701 38.2507C41.8499 38.8424 41.7485 39.4718 41.7717 40.1027V40.0947C41.8409 41.3547 42.3577 42.4842 43.1622 43.3366L43.1595 43.334C40.0691 49.1524 35.2165 53.8436 29.2969 56.7357L29.1131 56.8156C25.7431 58.6597 21.961 59.6201 18.1195 59.6073C17.0992 59.6073 16.0923 59.5407 15.1093 59.4129L15.2265 59.4262C13.4969 59.2638 11.8223 58.7317 10.3163 57.8658C8.81019 56.9999 7.50775 55.8206 6.49713 54.4075L6.47316 54.3702C4.97929 52.259 4.1804 49.7348 4.18758 47.1486C4.18758 44.9189 4.7683 42.8252 5.78855 41.0084L5.75658 41.0724C7.16274 38.3842 9.16118 36.0506 11.601 34.2476L11.657 34.2103C11.1589 32.8594 10.774 31.4694 10.5062 30.0547L10.4769 29.8789C-1.99785 38.8001 -0.732529 51.0031 3.05545 56.7704C4.81197 59.0282 7.08351 60.8327 9.68014 62.033C12.2768 63.2333 15.123 63.7945 17.9809 63.6697H17.9436L18.2606 63.6724C19.9465 63.6731 21.6269 63.48 23.2687 63.097L23.1195 63.1263C28.2536 62.2013 33.096 60.0746 37.2508 56.9198C41.4055 53.7651 44.7548 49.6719 47.0248 44.9749L47.11 44.7778L47.158 44.6739Z" fill="white"/>
<path d="M59.7939 34.318C53.8481 27.0597 45.1707 22.5033 35.4961 22.5033C35.2016 22.5038 34.9071 22.5082 34.6127 22.5166H34.6573H33.3261C32.9786 21.7618 32.4408 21.1262 31.7736 20.6815C31.1063 20.2368 30.3362 20.0007 29.5503 20L29.4043 20.0026H29.4117H29.3152C26.925 20.0397 25 22.1219 25 24.6861L25.0049 24.9113V24.9007C25.0579 26.1318 25.5488 27.2946 26.3769 28.1506C27.205 29.0067 28.3077 29.4912 29.4587 29.5047H29.6542C30.4949 29.47 31.3089 29.1788 32.0002 28.6654C32.6916 28.1519 33.2314 27.4376 33.5562 26.6067L33.5661 26.5749H35.0136C41.333 26.5828 47.1971 28.6597 52.0468 32.212L51.9429 32.1405C55.7115 34.7049 58.6439 38.4581 60.3358 42.8823L60.3877 43.036C61.0311 44.4718 61.4047 46.1565 61.4047 47.934C61.4047 49.8149 60.9865 51.5897 60.2418 53.1579L60.269 53.0917C58.3464 57.2931 54.3826 60.1328 49.8001 60.1328C49.6319 60.1328 49.4661 60.1302 49.3003 60.1222H49.3251C46.6094 60.0665 43.9316 59.4297 41.4493 58.2494L41.578 58.305C40.6402 59.1421 39.0764 60.5196 37.9407 61.3593C41.1407 63.0174 44.6375 63.9156 48.1918 63.9925H48.2215C51.2978 64.086 54.3425 63.3067 57.0467 61.7338C59.7509 60.1608 62.0184 57.8501 63.6192 55.0361L63.6637 54.954C64.5542 52.6514 65.0084 50.1824 64.9999 47.6903C64.9999 42.4452 63.0303 37.6929 59.8409 34.2359L59.8434 34.2385L59.8063 34.3233L59.7939 34.318Z" fill="white"/>
<path d="M18.6657 46.1949C18.7216 47.4347 19.2508 48.6059 20.1443 49.4672C21.0378 50.3285 22.2276 50.8143 23.4686 50.8247H23.6391C24.8784 50.7605 26.0447 50.2189 26.8934 49.3134C27.742 48.408 28.207 47.2091 28.1908 45.9682C28.1746 44.7273 27.6785 43.5409 26.8065 42.6579C25.9345 41.7749 24.7545 41.264 23.5139 41.2322H23.3354L23.2475 41.2295C23.0584 41.2286 22.8704 41.2583 22.6908 41.3174L22.7041 41.3148C19.7198 36.4145 18.1497 30.7841 18.1676 25.0467C18.1676 24.0771 18.2102 23.1181 18.2981 22.1724L18.2901 22.2949C18.5112 17.4197 20.292 12.7442 23.37 8.9571L23.3381 8.99972C24.6823 7.54123 26.3038 6.36529 28.1077 5.54063C29.9116 4.71597 31.8618 4.25913 33.8443 4.19682H33.8682C42.9573 4.02634 46.7479 15.353 47.0409 19.8549L51.2551 21.1149C50.2748 7.31351 41.6919 0.0678711 33.4846 0.0678711C29.5001 0.27109 25.6735 1.69002 22.5197 4.13368C19.3659 6.57735 17.0364 9.92847 15.8447 13.736L15.8074 13.8745C14.5751 17.5021 13.9522 21.3088 13.964 25.1399C13.964 32.0339 15.9379 38.4671 19.3477 43.904L19.2624 43.7575C18.7856 44.4823 18.5791 45.3518 18.679 46.2136L18.6764 46.1976L18.6657 46.1949Z" fill="white"/>
</g>
<defs>
<clipPath id="clip0_511_1717">
<rect width="66.596" height="63.9321" fill="white" transform="translate(0.434326 0.0678711)"/>
</clipPath>
</defs>
</svg>
