<svg width="64" height="65" viewBox="0 0 64 65" fill="none" xmlns="http://www.w3.org/2000/svg">
<path d="M29.9042 0.0850937C29.7666 0.0976041 29.3286 0.14139 28.9345 0.172666C19.8444 0.992096 11.3298 5.89617 5.93705 13.4337C2.93412 17.6246 1.01349 22.3786 0.287781 27.414C0.0312805 29.1717 0 29.6909 0 32.0741C0 34.4574 0.0312805 34.9765 0.287781 36.7343C2.02698 48.7505 10.5791 58.8464 22.1779 62.587C24.2549 63.2563 26.4446 63.7129 28.9345 63.9881C29.9042 64.0945 34.0958 64.0945 35.0655 63.9881C39.3634 63.5127 43.0045 62.4493 46.5955 60.6166C47.146 60.3351 47.2524 60.26 47.1773 60.1975C47.1273 60.1599 44.7812 57.0136 41.966 53.2104L36.8485 46.2984L30.436 36.8093C26.9075 31.5925 24.0047 27.3264 23.9797 27.3264C23.9546 27.3202 23.9296 31.5362 23.9171 36.6842C23.8983 45.6979 23.8921 46.0607 23.7795 46.2734C23.6168 46.5799 23.4917 46.705 23.2289 46.8426C23.0287 46.9427 22.8536 46.9615 21.9089 46.9615H20.8266L20.5388 46.7801C20.3511 46.6612 20.2135 46.5049 20.1196 46.3235L19.9883 46.042L20.0008 33.5003L20.0196 20.9524L20.2135 20.7085C20.3136 20.5771 20.5263 20.4082 20.6764 20.3269C20.9329 20.2018 21.033 20.1893 22.1153 20.1893C23.3916 20.1893 23.6043 20.2393 23.9359 20.6021C24.0297 20.7022 27.5019 25.9315 31.6559 32.2305C35.81 38.5295 41.4905 47.1304 44.2807 51.3526L49.3482 59.0278L49.6047 58.8589C51.8757 57.3826 54.278 55.2809 56.1799 53.0916C60.2276 48.444 62.8364 42.7768 63.7122 36.7343C63.9687 34.9765 64 34.4574 64 32.0741C64 29.6909 63.9687 29.1717 63.7122 27.414C61.973 15.3978 53.4209 5.30192 41.8221 1.56132C39.7763 0.898268 37.5992 0.44164 35.1593 0.166411C34.5587 0.103859 30.4235 0.0350522 29.9042 0.0850937ZM43.0045 19.4387C43.3048 19.5888 43.5488 19.8765 43.6364 20.1768C43.6864 20.3394 43.6989 23.8173 43.6864 31.655L43.6676 42.9019L41.6845 39.8618L39.695 36.8218V28.6463C39.695 23.3607 39.72 20.3894 39.7576 20.2456C39.8577 19.8953 40.0766 19.6201 40.3769 19.4574C40.6334 19.3261 40.7273 19.3135 41.7095 19.3135C42.6354 19.3135 42.798 19.3261 43.0045 19.4387Z" fill="white"/>
</svg>
