<svg width="64" height="64" viewBox="0 0 64 64" fill="none" xmlns="http://www.w3.org/2000/svg">
<g clip-path="url(#clip0_513_1317)">
<path d="M26.2667 22.4531C25.28 22.0531 24.2133 21.8931 23.12 21.9198C22.4267 21.9198 21.8133 21.9198 21.3067 21.9465C20.7733 21.9198 20.4 21.9465 20.2133 21.9731V30.9331C20.5867 30.9598 20.9333 30.9865 21.2533 30.9865H22.6667C23.7067 30.9865 24.7467 30.8265 25.7333 30.5065C26.5867 30.2665 27.3333 29.7598 27.92 29.0931C28.48 28.4265 28.7467 27.5198 28.7467 26.3465C28.7733 25.5198 28.56 24.6931 28.1333 23.9731C27.6887 23.2808 27.0348 22.7483 26.2667 22.4531ZM52.6667 0.799805H11.3333C5.06667 0.799805 0 5.86647 0 12.1331V51.8638C0 58.1305 5.06667 63.1971 11.3333 63.1971H52.6667C58.9333 63.1971 64 58.1305 64 51.8638V12.1331C64 5.86647 58.9333 0.799805 52.6667 0.799805ZM32.9573 31.8665C31.8933 33.3598 30.4 34.4798 28.6667 35.1198C26.8533 35.7865 24.8533 36.0265 22.6667 36.0265C22.0267 36.0265 21.6 36.0265 21.3333 35.9998C21.0667 35.9731 20.6933 35.9731 20.1867 35.9731V44.5305C20.2133 44.7171 20.08 44.8798 19.8933 44.9065H14.72C14.5067 44.9065 14.4 44.7971 14.4 44.5571V17.1198C14.4 16.9331 14.48 16.8265 14.6667 16.8265C15.12 16.8265 15.5467 16.8265 16.16 16.7998C16.8 16.7731 17.4667 16.7731 18.1867 16.7465C18.9067 16.7198 19.68 16.7198 20.5067 16.6931C21.3333 16.6665 22.1333 16.6665 22.9333 16.6665C25.12 16.6665 26.9333 16.9331 28.4267 17.4931C29.76 17.9465 30.9867 18.6931 32 19.6798C32.8533 20.5331 33.52 21.5731 33.9467 22.7198C34.344 23.8398 34.5573 24.9865 34.5573 26.1865C34.56 28.4798 34.0267 30.3731 32.9573 31.8665ZM51.8667 42.2398C51.12 43.3065 50.0773 44.1305 48.88 44.6158C47.5733 45.1731 45.9733 45.4638 44.0507 45.4638C42.8267 45.4638 41.624 45.3598 40.4267 45.1198C39.4933 44.9571 38.56 44.6665 37.7067 44.2665C37.52 44.1625 37.384 43.9758 37.4107 43.7625V39.1225C37.4107 39.0451 37.44 38.9358 37.52 38.8825C37.5973 38.8291 37.68 38.8558 37.76 38.9091C38.8 39.5225 39.8933 39.9518 41.0667 40.2158C42.0773 40.4825 43.144 40.6158 44.2133 40.6158C45.2267 40.6158 45.9467 40.4798 46.4267 40.2398C46.8533 40.0531 47.1467 39.5998 47.1467 39.1198C47.1467 38.7438 46.9333 38.3998 46.5067 38.0531C46.08 37.7091 45.2027 37.3091 43.896 36.7971C42.536 36.3171 41.2853 35.6771 40.1093 34.8798C39.2749 34.2822 38.5821 33.5083 38.08 32.6131C37.6562 31.7694 37.4464 30.8344 37.4693 29.8905C37.4693 28.7438 37.7893 27.6505 38.3787 26.6638C39.0453 25.5971 40.0293 24.7438 41.176 24.2105C42.4267 23.5731 44 23.2798 45.8933 23.2798C46.9867 23.2798 48.1067 23.3598 49.2 23.5198C50 23.6265 50.7733 23.8398 51.4933 24.1331C51.5973 24.1598 51.7067 24.2665 51.76 24.3731C51.7867 24.4798 51.8133 24.5865 51.8133 24.6931V29.0398C51.8133 29.1465 51.76 29.2531 51.68 29.3065C51.44 29.3598 51.3067 29.3598 51.2 29.3065C50.4 28.8798 49.5467 28.5865 48.64 28.3998C47.6533 28.1865 46.6667 28.0531 45.6533 28.0531C45.12 28.0265 44.56 28.1065 44.0507 28.2398C43.7067 28.3198 43.4107 28.5065 43.224 28.7731C43.0907 28.9865 43.0107 29.2531 43.0107 29.4931C43.0107 29.7331 43.1173 29.9731 43.28 30.1865C43.52 30.4798 43.8373 30.7198 44.1867 30.9065C44.7973 31.2265 45.44 31.5198 46.0773 31.7865C47.52 32.2665 48.9067 32.9331 50.1867 33.7331C51.0667 34.2905 51.7867 35.0398 52.2907 35.9465C52.7173 36.7945 52.9307 37.7331 52.904 38.6905C52.9333 39.9465 52.56 41.1971 51.8667 42.2398Z" fill="white"/>
</g>
<defs>
<clipPath id="clip0_513_1317">
<rect width="64" height="64" fill="white"/>
</clipPath>
</defs>
</svg>
