<svg width="64" height="64" viewBox="0 0 64 64" fill="none" xmlns="http://www.w3.org/2000/svg">
<g clip-path="url(#clip0_511_1715)">
<path d="M32.0001 32C32.0001 17.782 53.3341 17.782 53.3341 32C53.3341 46.218 32.0001 46.218 32.0001 32ZM10.6661 53.334C10.6653 51.9331 10.9406 50.5458 11.4764 49.2514C12.0121 47.957 12.7977 46.7809 13.7883 45.7903C14.7789 44.7997 15.955 44.0141 17.2494 43.4783C18.5438 42.9426 19.9312 42.6673 21.3321 42.668H31.9981V53.334C31.9981 67.552 10.6641 67.552 10.6641 53.334H10.6661ZM32.0001 4.85647e-05V21.334H42.6661C56.8841 21.334 56.8841 4.85647e-05 42.6661 4.85647e-05H32.0001ZM10.6661 10.666C10.6653 12.0669 10.9406 13.4543 11.4764 14.7487C12.0121 16.0431 12.7977 17.2192 13.7883 18.2098C14.7789 19.2004 15.955 19.986 17.2494 20.5218C18.5438 21.0575 19.9312 21.3328 21.3321 21.332H31.9981V-0.00195144H21.3321C19.9312 -0.00274016 18.5438 0.272606 17.2494 0.808343C15.955 1.34408 14.7789 2.1297 13.7883 3.12029C12.7977 4.11088 12.0121 5.287 11.4764 6.58141C10.9406 7.87583 10.6653 9.26315 10.6661 10.664V10.666ZM10.6661 32C10.6653 33.401 10.9406 34.7883 11.4764 36.0827C12.0121 37.3771 12.7977 38.5532 13.7883 39.5438C14.7789 40.5344 15.955 41.32 17.2494 41.8558C18.5438 42.3915 19.9312 42.6668 21.3321 42.666H31.9981V21.332H21.3321C19.9312 21.3313 18.5438 21.6066 17.2494 22.1423C15.955 22.6781 14.7789 23.4637 13.7883 24.4543C12.7977 25.4449 12.0121 26.621 11.4764 27.9154C10.9406 29.2098 10.6653 30.5971 10.6661 31.998V32Z" fill="white"/>
</g>
<defs>
<clipPath id="clip0_511_1715">
<rect width="64" height="64" fill="white"/>
</clipPath>
</defs>
</svg>
