<svg width="64" height="64" viewBox="0 0 64 64" fill="none" xmlns="http://www.w3.org/2000/svg">
<path fill-rule="evenodd" clip-rule="evenodd" d="M2.66675 31.9998C2.66675 15.7998 15.8001 2.6665 32.0001 2.6665C48.2001 2.6665 61.3334 15.7998 61.3334 31.9998C61.3334 48.1998 48.2001 61.3332 32.0001 61.3332C15.8001 61.3332 2.66675 48.1998 2.66675 31.9998ZM39.4668 25.0665C39.0424 24.5007 38.4107 24.1267 37.7105 24.0266C37.0104 23.9266 36.2992 24.1088 35.7334 24.5332C35.1676 24.9575 34.7936 25.5892 34.6936 26.2894C34.5935 26.9895 34.7757 27.7007 35.2001 28.2665L38.0001 31.9998L35.2001 35.7332C34.7757 36.299 34.5935 37.0102 34.6936 37.7103C34.7936 38.4104 35.1676 39.0422 35.7334 39.4665C36.2992 39.8909 37.0104 40.0731 37.7105 39.973C38.4107 39.873 39.0424 39.499 39.4668 38.9332L41.3334 36.4452L43.2001 38.9332C43.6244 39.499 44.2562 39.873 44.9563 39.973C45.303 40.0226 45.656 40.0033 45.9952 39.9164C46.3345 39.8295 46.6533 39.6766 46.9334 39.4665C47.2136 39.2564 47.4496 38.9932 47.628 38.6918C47.8064 38.3905 47.9238 38.057 47.9733 37.7103C48.0228 37.3636 48.0036 37.0106 47.9167 36.6714C47.8297 36.3321 47.6769 36.0133 47.4667 35.7332L44.6667 31.9998L47.4667 28.2665C47.8911 27.7007 48.0733 26.9895 47.9733 26.2894C47.8733 25.5892 47.4992 24.9575 46.9334 24.5332C46.6533 24.3231 46.3345 24.1702 45.9952 24.0833C45.656 23.9964 45.303 23.9771 44.9563 24.0266C44.2562 24.1267 43.6244 24.5007 43.2001 25.0665L41.3334 27.5545L39.4668 25.0665ZM21.3334 26.6665C21.3334 25.9593 21.0525 25.281 20.5524 24.7809C20.0523 24.2808 19.374 23.9998 18.6667 23.9998C17.9595 23.9998 17.2812 24.2808 16.7811 24.7809C16.281 25.281 16.0001 25.9593 16.0001 26.6665V31.9998C16.0001 33.3145 16.3734 35.2292 17.5681 36.8905C18.8641 38.6932 20.9974 39.9998 24.0001 39.9998C27.0027 39.9998 29.1361 38.6878 30.4321 36.8905C31.6267 35.2292 32.0001 33.3172 32.0001 31.9998V26.6665C32.0001 25.9593 31.7191 25.281 31.219 24.7809C30.7189 24.2808 30.0407 23.9998 29.3334 23.9998C28.6262 23.9998 27.9479 24.2808 27.4478 24.7809C26.9477 25.281 26.6667 25.9593 26.6667 26.6665V31.9998C26.6667 32.4612 26.5067 33.2158 26.1014 33.7758C25.7974 34.1998 25.2641 34.6665 24.0001 34.6665C22.7361 34.6665 22.2027 34.1998 21.8987 33.7758C21.5438 33.2504 21.3475 32.6338 21.3334 31.9998V26.6665Z" fill="white"/>
</svg>
